<svg width="64" height="64" viewBox="0 0 64 64" fill="none" xmlns="http://www.w3.org/2000/svg">
<rect width="64" height="64" rx="32" fill="#FEB800" fill-opacity="0.25"/>
<path d="M43.3538 28.9712L33.3538 19.5362C33.3489 19.5319 33.3443 19.5273 33.34 19.5224C32.9718 19.1876 32.492 19.0021 31.9944 19.0021C31.4967 19.0021 31.0169 19.1876 30.6488 19.5224L30.635 19.5362L20.6462 28.9712C20.4425 29.1586 20.2799 29.3862 20.1686 29.6396C20.0574 29.8931 20 30.1669 20 30.4437V42C20 42.5304 20.2107 43.0391 20.5858 43.4142C20.9609 43.7892 21.4696 44 22 44H28C28.5304 44 29.0391 43.7892 29.4142 43.4142C29.7893 43.0391 30 42.5304 30 42V36H34V42C34 42.5304 34.2107 43.0391 34.5858 43.4142C34.9609 43.7892 35.4696 44 36 44H42C42.5304 44 43.0391 43.7892 43.4142 43.4142C43.7893 43.0391 44 42.5304 44 42V30.4437C44 30.1669 43.9426 29.8931 43.8314 29.6396C43.7201 29.3862 43.5575 29.1586 43.3538 28.9712ZM42 42H36V36C36 35.4695 35.7893 34.9608 35.4142 34.5857C35.0391 34.2107 34.5304 34 34 34H30C29.4696 34 28.9609 34.2107 28.5858 34.5857C28.2107 34.9608 28 35.4695 28 36V42H22V30.4437L22.0138 30.4312L32 20.9999L41.9875 30.4287L42.0012 30.4412L42 42Z" fill="#BB6402"/>
</svg>
