<svg width="65" height="64" viewBox="0 0 65 64" fill="none" xmlns="http://www.w3.org/2000/svg">
<path d="M44.3333 22H36.3333C35.5571 22 34.7915 22.1807 34.0972 22.5279C33.403 22.875 32.799 23.379 32.3333 24C31.8676 23.379 31.2637 22.875 30.5694 22.5279C29.8751 22.1807 29.1095 22 28.3333 22H20.3333C19.8029 22 19.2942 22.2107 18.9191 22.5858C18.544 22.9609 18.3333 23.4696 18.3333 24V40C18.3333 40.5304 18.544 41.0391 18.9191 41.4142C19.2942 41.7893 19.8029 42 20.3333 42H28.3333C29.129 42 29.892 42.3161 30.4546 42.8787C31.0172 43.4413 31.3333 44.2044 31.3333 45C31.3333 45.2652 31.4387 45.5196 31.6262 45.7071C31.8137 45.8946 32.0681 46 32.3333 46C32.5985 46 32.8529 45.8946 33.0404 45.7071C33.228 45.5196 33.3333 45.2652 33.3333 45C33.3333 44.2044 33.6494 43.4413 34.212 42.8787C34.7746 42.3161 35.5377 42 36.3333 42H44.3333C44.8637 42 45.3725 41.7893 45.7475 41.4142C46.1226 41.0391 46.3333 40.5304 46.3333 40V24C46.3333 23.4696 46.1226 22.9609 45.7475 22.5858C45.3725 22.2107 44.8637 22 44.3333 22ZM28.3333 40H20.3333V24H28.3333C29.129 24 29.892 24.3161 30.4546 24.8787C31.0172 25.4413 31.3333 26.2044 31.3333 27V41C30.4686 40.3493 29.4154 39.9983 28.3333 40ZM44.3333 40H36.3333C35.2512 39.9983 34.198 40.3493 33.3333 41V27C33.3333 26.2044 33.6494 25.4413 34.212 24.8787C34.7746 24.3161 35.5377 24 36.3333 24H44.3333V40Z" fill="#2A2420"/>
</svg>
