<svg width="380" height="64" viewBox="0 0 380 64" fill="none" xmlns="http://www.w3.org/2000/svg">
<rect x="0.5" y="0.5" width="176.803" height="63" rx="31.5" stroke="#DBD7CE"/>
<path d="M47.3474 24.096C47.0163 24.096 46.7225 24.3082 46.6184 24.6226L45.1343 29.1039C44.9697 29.6009 45.3398 30.1133 45.8634 30.1133H49.8129C50.3277 30.1133 50.6967 30.6098 50.5482 31.1028L49.911 33.2185C49.7626 33.7115 50.1316 34.208 50.6464 34.208H52.2366C52.5677 34.208 52.8615 33.9958 52.9656 33.6814L54.4497 29.2001C54.6143 28.7031 54.2442 28.1907 53.7206 28.1907H49.7711C49.2563 28.1907 48.8873 27.6942 49.0358 27.2012L49.673 25.0855C49.8214 24.5925 49.4524 24.096 48.9376 24.096H47.3474Z" fill="#C3BCAE"/>
<path fill-rule="evenodd" clip-rule="evenodd" d="M43.9878 39.4514C44.0002 39.4752 44.012 39.4979 44.0233 39.5194V43.616C44.0233 44.9945 45.1407 46.112 46.5193 46.112H52.97C54.3485 46.112 55.466 44.9945 55.466 43.616V39.5172C55.4774 39.4953 55.4894 39.4721 55.502 39.4477C55.6139 39.2309 55.7729 38.9188 55.9634 38.5336C56.344 37.7641 56.8523 36.6987 57.3617 35.5171C57.8698 34.3385 58.3863 33.0277 58.7776 31.7708C59.1619 30.5364 59.456 29.2603 59.456 28.1829C59.456 25.6731 58.8627 23.0871 57.2937 21.1101C55.6878 19.0868 53.1851 17.8599 49.728 17.8885C46.2709 17.8599 43.7682 19.0868 42.1624 21.1101C40.5933 23.0871 40 25.6731 40 28.1829C40 29.2619 40.2969 30.5391 40.6845 31.7735C41.0792 33.0308 41.6 34.3417 42.1124 35.5205C42.6261 36.7022 43.1387 37.7677 43.5224 38.5372C43.7145 38.9224 43.8749 39.2346 43.9878 39.4514ZM42.432 28.1829C42.432 26.0091 42.9518 24.0275 44.0673 22.622C45.1443 21.265 46.894 20.295 49.717 20.3205L49.728 20.3206L49.739 20.3205C52.562 20.295 54.3117 21.265 55.3887 22.622C56.5042 24.0275 57.024 26.0091 57.024 28.1829C57.024 28.8858 56.8194 29.8793 56.4555 31.0478C56.0987 32.1938 55.6177 33.4193 55.1284 34.5543C54.6403 35.6865 54.1511 36.7122 53.7835 37.4555C53.6819 37.6608 53.5898 37.8442 53.5098 38.002H45.9766C45.8955 37.8434 45.802 37.6588 45.6988 37.4519C45.3282 36.7086 44.8349 35.683 44.3428 34.5509C43.8494 33.416 43.3645 32.1908 43.0048 31.0451C42.638 29.8766 42.432 28.8842 42.432 28.1829ZM46.4553 40.434H53.034V43.616C53.034 43.6513 53.0054 43.68 52.97 43.68H46.5193C46.4839 43.68 46.4553 43.6513 46.4553 43.616V40.434Z" fill="#C3BCAE"/>
<path d="M69.696 40.6225V23.168H72.8579V37.972H80.5454V40.6225H69.696Z" fill="#C3BCAE"/>
<path d="M94.3949 40.6225V27.5316H97.3438V29.7561H97.4972C97.7699 29.0061 98.2216 28.4208 98.8523 28.0004C99.483 27.5743 100.236 27.3612 101.111 27.3612C101.997 27.3612 102.744 27.5771 103.352 28.0089C103.966 28.435 104.398 29.0174 104.648 29.7561H104.784C105.074 29.0288 105.563 28.4493 106.25 28.0174C106.943 27.5799 107.764 27.3612 108.713 27.3612C109.918 27.3612 110.901 27.7419 111.662 28.5032C112.423 29.2646 112.804 30.3754 112.804 31.8356V40.6225H109.71V32.3129C109.71 31.5004 109.494 30.9066 109.063 30.5316C108.631 30.151 108.102 29.9606 107.477 29.9606C106.733 29.9606 106.151 30.1936 105.73 30.6595C105.315 31.1197 105.108 31.7191 105.108 32.4578V40.6225H102.082V32.185C102.082 31.5089 101.878 30.9691 101.469 30.5657C101.065 30.1623 100.537 29.9606 99.8836 29.9606C99.4404 29.9606 99.037 30.0743 98.6733 30.3015C98.3097 30.5231 98.0199 30.8385 97.804 31.2475C97.5881 31.651 97.4802 32.1225 97.4802 32.6623V40.6225H94.3949Z" fill="#C3BCAE"/>
<path fill-rule="evenodd" clip-rule="evenodd" d="M116.64 40.0345C117.578 40.597 118.686 40.8782 119.964 40.8782C121.243 40.8782 122.351 40.597 123.288 40.0345C124.226 39.472 124.95 38.685 125.461 37.6737C125.978 36.6623 126.237 35.4805 126.237 34.1282C126.237 32.776 125.978 31.5913 125.461 30.5743C124.95 29.5572 124.226 28.7674 123.288 28.2049C122.351 27.6424 121.243 27.3612 119.964 27.3612C118.686 27.3612 117.578 27.6424 116.64 28.2049C115.703 28.7674 114.976 29.5572 114.459 30.5743C113.947 31.5913 113.692 32.776 113.692 34.1282C113.692 35.4805 113.947 36.6623 114.459 37.6737C114.976 38.685 115.703 39.472 116.64 40.0345ZM121.72 37.8356C121.254 38.2163 120.674 38.4066 119.981 38.4066C119.271 38.4066 118.68 38.2163 118.209 37.8356C117.743 37.4493 117.393 36.9322 117.16 36.2845C116.933 35.6368 116.819 34.9152 116.819 34.1197C116.819 33.3186 116.933 32.5941 117.16 31.9464C117.393 31.293 117.743 30.7731 118.209 30.3868C118.68 30.0004 119.271 29.8072 119.981 29.8072C120.674 29.8072 121.254 30.0004 121.72 30.3868C122.186 30.7731 122.532 31.293 122.76 31.9464C122.993 32.5941 123.109 33.3186 123.109 34.1197C123.109 34.9152 122.993 35.6368 122.76 36.2845C122.532 36.9322 122.186 37.4493 121.72 37.8356Z" fill="#C3BCAE"/>
<path d="M134.71 31.2987L137.522 30.9919C137.312 29.8782 136.764 28.9947 135.877 28.3413C134.997 27.6879 133.789 27.3612 132.255 27.3612C131.21 27.3612 130.286 27.526 129.485 27.8555C128.69 28.1794 128.068 28.6396 127.619 29.2362C127.176 29.8271 126.957 30.526 126.962 31.3328C126.957 32.2873 127.255 33.0771 127.857 33.7021C128.46 34.3214 129.389 34.7618 130.644 35.0231L132.877 35.4919C133.48 35.6225 133.923 35.81 134.207 36.0544C134.497 36.2987 134.641 36.6083 134.641 36.9833C134.641 37.4265 134.417 37.7987 133.968 38.0998C133.525 38.401 132.937 38.5515 132.204 38.5515C131.494 38.5515 130.917 38.401 130.474 38.0998C130.031 37.7987 129.741 37.3527 129.605 36.7618L126.596 37.0515C126.784 38.2561 127.366 39.1964 128.343 39.8725C129.32 40.543 130.61 40.8782 132.212 40.8782C133.303 40.8782 134.269 40.7021 135.11 40.3498C135.951 39.9975 136.607 39.5089 137.079 38.8839C137.556 38.2532 137.798 37.526 137.803 36.7021C137.798 35.7646 137.491 35.0061 136.883 34.4265C136.281 33.847 135.36 33.4237 134.122 33.1566L131.889 32.6794C131.224 32.526 130.747 32.3299 130.457 32.0913C130.173 31.8527 130.034 31.543 130.039 31.1623C130.034 30.7191 130.247 30.3583 130.678 30.0799C131.116 29.8015 131.656 29.6623 132.298 29.6623C132.775 29.6623 133.178 29.739 133.508 29.8924C133.837 30.0458 134.099 30.2475 134.292 30.4975C134.491 30.7475 134.63 31.0146 134.71 31.2987Z" fill="#C3BCAE"/>
<path d="M89.8171 27.5316V35.1169C89.8171 35.7816 89.6779 36.3356 89.3995 36.7788C89.1268 37.2163 88.7774 37.5458 88.3512 37.7674C87.9251 37.989 87.4847 38.0998 87.0302 38.0998C86.2916 38.0998 85.695 37.8555 85.2404 37.3669C84.7859 36.8782 84.5586 36.2191 84.5586 35.3896V27.5316H81.4734V35.8669C81.4734 36.9123 81.658 37.8044 82.0274 38.543C82.3967 39.2759 82.908 39.8356 83.5614 40.222C84.2205 40.6027 84.9791 40.793 85.837 40.793C86.82 40.793 87.6467 40.56 88.3171 40.0941C88.9933 39.6282 89.4791 39.0288 89.7745 38.2958H89.9109V40.6225H92.9024V27.5316H89.8171Z" fill="#C3BCAE"/>
</svg>
