<svg width="20" height="22" viewBox="0 0 20 22" fill="none" xmlns="http://www.w3.org/2000/svg">
<g clip-path="url(#clip0_627_972)">
<path d="M14.3782 8.12137C15.7031 9.06799 17.3262 9.62497 19.0793 9.62497V6.25333C18.7475 6.2534 18.4166 6.21882 18.092 6.15009V8.80405C16.3391 8.80405 14.7162 8.24707 13.3909 7.30052V14.1811C13.3909 17.6231 10.5992 20.4131 7.15566 20.4131C5.87079 20.4131 4.67656 20.0249 3.68451 19.3591C4.81677 20.5162 6.3958 21.234 8.14271 21.234C11.5865 21.234 14.3783 18.4439 14.3783 15.0018V8.12137H14.3782ZM15.5961 4.71979C14.919 3.98042 14.4744 3.02492 14.3782 1.96858V1.53491H13.4426C13.6781 2.87753 14.4813 4.02458 15.5961 4.71979ZM5.86255 16.7178C5.48424 16.222 5.2798 15.6155 5.28072 14.9919C5.28072 13.4177 6.55763 12.1413 8.13299 12.1413C8.42659 12.1412 8.71842 12.1861 8.99821 12.2748V8.82785C8.67124 8.78306 8.34123 8.76405 8.01137 8.77102V11.454C7.73137 11.3653 7.4394 11.3202 7.14573 11.3205C5.57037 11.3205 4.29353 12.5968 4.29353 14.1712C4.29353 15.2844 4.93177 16.2483 5.86255 16.7178Z" fill="#FF004F"/>
<path d="M13.3909 7.30045C14.7162 8.247 16.3391 8.80398 18.092 8.80398V6.15002C17.1135 5.9417 16.2473 5.43064 15.5961 4.71979C14.4813 4.02451 13.6781 2.87746 13.4426 1.53491H10.9851V15.0016C10.9796 16.5716 9.70483 17.8428 8.13285 17.8428C7.2065 17.8428 6.38354 17.4014 5.86234 16.7178C4.93163 16.2483 4.29338 15.2844 4.29338 14.1713C4.29338 12.597 5.57022 11.3205 7.14559 11.3205C7.44742 11.3205 7.73834 11.3675 8.01123 11.4541V8.77109C4.62817 8.84095 1.90738 11.6038 1.90738 15.0017C1.90738 16.6979 2.58492 18.2356 3.68458 19.3591C4.67662 20.0249 5.87086 20.4132 7.15573 20.4132C10.5993 20.4132 13.391 17.623 13.391 14.1811L13.3909 7.30045Z" fill="black"/>
<path d="M18.092 6.15012V5.43251C17.2097 5.43385 16.3447 5.18687 15.5961 4.71983C16.2588 5.44497 17.1314 5.94498 18.092 6.15012ZM13.4426 1.53501C13.4201 1.40673 13.4029 1.27758 13.3909 1.1479V0.714233H9.9978V14.1811C9.99238 15.7508 8.71772 17.022 7.14559 17.022C6.68404 17.022 6.24826 16.9125 5.86235 16.7179C6.38355 17.4015 7.20651 17.8428 8.13285 17.8428C9.7047 17.8428 10.9796 16.5717 10.9851 15.0018V1.53501H13.4426ZM8.01138 8.7712V8.00725C7.72785 7.96851 7.442 7.94908 7.15581 7.94922C3.71191 7.94922 0.920197 10.7394 0.920197 14.1811C0.920197 16.3389 2.01739 18.2405 3.68465 19.3591C2.585 18.2356 1.90746 16.6979 1.90746 15.0017C1.90746 11.6039 4.62818 8.84105 8.01138 8.7712Z" fill="#00F2EA"/>
</g>
<defs>
<clipPath id="clip0_627_972">
<rect width="18.1596" height="20.5714" fill="white" transform="translate(0.920197 0.714233)"/>
</clipPath>
</defs>
</svg>
