<svg width="22" height="22" viewBox="0 0 22 22" fill="none" xmlns="http://www.w3.org/2000/svg">
<g clip-path="url(#clip0_627_965)">
<path d="M11 2.56759C13.7464 2.56759 14.0717 2.57804 15.1562 2.62746C16.1591 2.67326 16.7038 2.8408 17.0662 2.98167C17.5463 3.16826 17.8889 3.39117 18.2489 3.75109C18.6089 4.11101 18.8317 4.45365 19.0183 4.93371C19.1592 5.2962 19.3267 5.84086 19.3725 6.84364C19.4219 7.9283 19.4324 8.25358 19.4324 10.9999C19.4324 13.7464 19.4219 14.0717 19.3725 15.1563C19.3267 16.1591 19.1592 16.7037 19.0183 17.0662C18.8317 17.5462 18.6088 17.889 18.2489 18.2489C17.8889 18.6088 17.5463 18.8317 17.0662 19.0182C16.7038 19.1591 16.1591 19.3267 15.1562 19.3724C14.0718 19.4219 13.7465 19.4324 11 19.4324C8.2534 19.4324 7.92812 19.4219 6.8437 19.3724C5.84084 19.3266 5.29626 19.1591 4.93377 19.0182C4.45371 18.8317 4.11099 18.6088 3.75107 18.2489C3.39115 17.8889 3.16824 17.5462 2.98173 17.0662C2.84087 16.7038 2.67324 16.1591 2.62752 15.1563C2.57802 14.0717 2.56757 13.7464 2.56757 10.9999C2.56757 8.25358 2.57802 7.9283 2.62752 6.84372C2.67332 5.84086 2.84087 5.2962 2.98173 4.93371C3.16824 4.45365 3.39115 4.11101 3.75107 3.75109C4.11107 3.39109 4.45371 3.16826 4.93377 2.98167C5.29618 2.8408 5.84084 2.67326 6.8437 2.62746C7.92828 2.57804 8.25356 2.56759 11 2.56759ZM11 0.714233C8.20655 0.714233 7.85628 0.726046 6.75924 0.776108C5.66437 0.826091 4.91665 0.999983 4.26246 1.25423C3.58602 1.51708 3.01243 1.8688 2.44061 2.44063C1.86879 3.01245 1.51714 3.58604 1.25429 4.2624C0.999964 4.91667 0.826152 5.66439 0.776169 6.75918C0.726107 7.85622 0.714294 8.20649 0.714294 10.9999C0.714294 13.7934 0.726107 14.1437 0.776169 15.2407C0.826152 16.3356 0.999964 17.0833 1.25429 17.7375C1.51706 18.4139 1.86879 18.9875 2.44061 19.5593C3.01243 20.1312 3.58602 20.4828 4.26246 20.7457C4.91673 21 5.66437 21.1738 6.75916 21.2238C7.85628 21.2738 8.20655 21.2857 11 21.2857C13.7935 21.2857 14.1437 21.2738 15.2408 21.2238C16.3356 21.1738 17.0833 21 17.7375 20.7457C18.4139 20.4829 18.9875 20.1312 19.5593 19.5593C20.1312 18.9875 20.4829 18.4139 20.7457 17.7375C21 17.0832 21.1739 16.3356 21.2238 15.2408C21.2739 14.1437 21.2857 13.7934 21.2857 10.9999C21.2857 8.20649 21.2739 7.85622 21.2238 6.75918C21.1739 5.66439 21 4.91667 20.7457 4.26248C20.4829 3.58604 20.1312 3.01245 19.5593 2.44063C18.9875 1.8688 18.4139 1.517 17.7376 1.25423C17.0833 0.999983 16.3356 0.826091 15.2408 0.776108C14.1437 0.726046 13.7935 0.714233 11 0.714233ZM11 5.71807C8.08288 5.71807 5.71813 8.08298 5.71813 10.9999C5.71813 13.9171 8.08288 16.2818 11 16.2818C13.9171 16.2818 16.2819 13.9171 16.2819 10.9999C16.2819 8.0829 13.9171 5.71807 11 5.71807ZM11 14.4285C9.10647 14.4285 7.57141 12.8935 7.57141 10.9999C7.57141 9.10641 9.10647 7.57135 11 7.57135C12.8935 7.57135 14.4286 9.10641 14.4286 10.9999C14.4286 12.8935 12.8935 14.4285 11 14.4285ZM17.7248 5.50939C17.7248 6.19113 17.1722 6.74367 16.4905 6.74367C15.8088 6.74367 15.2562 6.19113 15.2562 5.50939C15.2562 4.82772 15.8088 4.2751 16.4905 4.2751C17.1722 4.2751 17.7248 4.82772 17.7248 5.50939Z" fill="#2A2420"/>
</g>
<defs>
<clipPath id="clip0_627_965">
<rect width="20.5714" height="20.5714" fill="white" transform="translate(0.714294 0.714233)"/>
</clipPath>
</defs>
</svg>
