<svg width="65" height="64" viewBox="0 0 65 64" fill="none" xmlns="http://www.w3.org/2000/svg">
<path d="M46.6667 39H45.6667V23.2375L46.8754 22.9775C47.0066 22.9529 47.1315 22.9023 47.2429 22.8286C47.3542 22.755 47.4496 22.6598 47.5236 22.5487C47.5975 22.4375 47.6485 22.3127 47.6734 22.1816C47.6984 22.0505 47.6969 21.9157 47.6689 21.7852C47.6409 21.6547 47.5871 21.5311 47.5107 21.4217C47.4342 21.3123 47.3366 21.2193 47.2236 21.1482C47.1106 21.0771 46.9846 21.0294 46.8528 21.0078C46.7211 20.9862 46.5864 20.9912 46.4567 21.0225L18.4567 27.0225C18.2154 27.0745 18.002 27.214 17.8573 27.4139C17.7127 27.6138 17.6471 27.8602 17.6732 28.1056C17.6992 28.351 17.8151 28.5781 17.9985 28.7432C18.1819 28.9083 18.4199 28.9998 18.6667 29C18.7377 28.9999 18.8085 28.9923 18.8779 28.9775L19.6667 28.8087V39H18.6667C18.4014 39 18.1471 39.1053 17.9595 39.2929C17.772 39.4804 17.6667 39.7348 17.6667 40C17.6667 40.2652 17.772 40.5196 17.9595 40.7071C18.1471 40.8946 18.4014 41 18.6667 41H46.6667C46.9319 41 47.1862 40.8946 47.3738 40.7071C47.5613 40.5196 47.6667 40.2652 47.6667 40C47.6667 39.7348 47.5613 39.4804 47.3738 39.2929C47.1862 39.1053 46.9319 39 46.6667 39ZM21.6667 28.375L43.6667 23.6662V39H40.6667V32C40.6667 31.7348 40.5613 31.4804 40.3738 31.2929C40.1862 31.1053 39.9319 31 39.6667 31H25.6667C25.4014 31 25.1471 31.1053 24.9596 31.2929C24.772 31.4804 24.6667 31.7348 24.6667 32V39H21.6667V28.375ZM38.6667 35H26.6667V33H38.6667V35ZM26.6667 37H38.6667V39H26.6667V37Z" fill="#2A2420"/>
</svg>
