<svg width="64" height="64" viewBox="0 0 64 64" fill="none" xmlns="http://www.w3.org/2000/svg">
<path d="M33.5128 40C33.5128 40.3651 33.4046 40.7221 33.2017 41.0257C32.9989 41.3293 32.7105 41.5659 32.3732 41.7056C32.0358 41.8453 31.6646 41.8819 31.3065 41.8107C30.9484 41.7394 30.6195 41.5636 30.3613 41.3054C30.1031 41.0472 29.9272 40.7183 29.856 40.3602C29.7848 40.002 29.8213 39.6308 29.9611 39.2935C30.1008 38.9562 30.3374 38.6678 30.641 38.465C30.9446 38.2621 31.3016 38.1538 31.6667 38.1538C32.1563 38.1538 32.6259 38.3483 32.9721 38.6946C33.3183 39.0408 33.5128 39.5104 33.5128 40ZM31.6667 23.3846C28.2728 23.3846 25.5128 25.8692 25.5128 28.9231V29.5385C25.5128 29.8649 25.6425 30.1779 25.8733 30.4087C26.1041 30.6396 26.4172 30.7692 26.7436 30.7692C27.07 30.7692 27.3831 30.6396 27.6139 30.4087C27.8447 30.1779 27.9744 29.8649 27.9744 29.5385V28.9231C27.9744 27.2308 29.6313 25.8462 31.6667 25.8462C33.7021 25.8462 35.359 27.2308 35.359 28.9231C35.359 30.6154 33.7021 32 31.6667 32C31.3403 32 31.0272 32.1297 30.7964 32.3605C30.5656 32.5913 30.4359 32.9043 30.4359 33.2308V34.4615C30.4359 34.788 30.5656 35.101 30.7964 35.3318C31.0272 35.5626 31.3403 35.6923 31.6667 35.6923C31.9931 35.6923 32.3062 35.5626 32.537 35.3318C32.7678 35.101 32.8975 34.788 32.8975 34.4615V34.3508C35.7036 33.8354 37.8205 31.5969 37.8205 28.9231C37.8205 25.8692 35.0605 23.3846 31.6667 23.3846ZM47.6667 32C47.6667 35.1645 46.7283 38.2579 44.9702 40.8891C43.2121 43.5203 40.7132 45.5711 37.7896 46.7821C34.866 47.9931 31.6489 48.3099 28.5452 47.6926C25.4416 47.0752 22.5906 45.5513 20.353 43.3137C18.1153 41.0761 16.5915 38.2251 15.9741 35.1214C15.3568 32.0177 15.6736 28.8007 16.8846 25.8771C18.0956 22.9534 20.1464 20.4546 22.7776 18.6965C25.4088 16.9384 28.5022 16 31.6667 16C35.9088 16.0045 39.9758 17.6916 42.9754 20.6912C45.9751 23.6908 47.6622 27.7579 47.6667 32ZM45.2051 32C45.2051 29.3223 44.4111 26.7048 42.9235 24.4784C41.4359 22.252 39.3215 20.5168 36.8476 19.4921C34.3738 18.4674 31.6517 18.1993 29.0255 18.7217C26.3993 19.2441 23.9869 20.5335 22.0936 22.4269C20.2002 24.3202 18.9108 26.7326 18.3884 29.3588C17.866 31.985 18.1341 34.7071 19.1588 37.1809C20.1835 39.6548 21.9187 41.7692 24.1451 43.2568C26.3715 44.7444 28.989 45.5385 31.6667 45.5385C35.2561 45.5344 38.6973 44.1067 41.2353 41.5686C43.7734 39.0306 45.2011 35.5894 45.2051 32Z" fill="#343330"/>
</svg>
